<svg width="1262" height="474" viewBox="0 0 1262 474" fill="none" xmlns="http://www.w3.org/2000/svg">
<path d="M0 0H1025C1155.89 0 1262 106.109 1262 237C1262 367.891 1155.89 474 1025 474H0V0Z" fill="url(#paint0_linear_57_391)"/>
<path d="M237.6 216V145.5H246.9V216H237.6ZM237.3 135.6V126.2H247.1V135.6H237.3ZM279.967 216.9C275.901 216.9 272.101 216.367 268.567 215.3C265.101 214.233 262.234 212.7 259.967 210.7L262.867 204.4C265.334 206.267 268.034 207.7 270.967 208.7C273.967 209.633 277.034 210.1 280.167 210.1C283.967 210.1 286.834 209.4 288.767 208C290.767 206.6 291.767 204.733 291.767 202.4C291.767 200.533 291.134 199.033 289.867 197.9C288.601 196.767 286.601 195.933 283.867 195.4L274.367 193.5C270.101 192.5 266.867 190.9 264.667 188.7C262.534 186.433 261.467 183.533 261.467 180C261.467 177.067 262.267 174.467 263.867 172.2C265.467 169.867 267.734 168.067 270.667 166.8C273.667 165.467 277.167 164.8 281.167 164.8C284.834 164.8 288.234 165.333 291.367 166.4C294.567 167.467 297.201 169.033 299.267 171.1L296.267 177.2C294.201 175.4 291.867 174.033 289.267 173.1C286.734 172.1 284.134 171.6 281.467 171.6C277.601 171.6 274.734 172.367 272.867 173.9C271.001 175.367 270.067 177.3 270.067 179.7C270.067 181.5 270.634 183 271.767 184.2C272.901 185.333 274.734 186.2 277.267 186.8L286.767 188.7C291.234 189.633 294.601 191.167 296.867 193.3C299.134 195.433 300.267 198.267 300.267 201.8C300.267 204.933 299.401 207.633 297.667 209.9C296.001 212.167 293.634 213.9 290.567 215.1C287.567 216.3 284.034 216.9 279.967 216.9ZM280.267 235.3C278.467 235.3 276.734 235.1 275.067 234.7C273.467 234.367 272.101 233.9 270.967 233.3L272.367 228.6C273.634 229.2 274.801 229.633 275.867 229.9C277.001 230.167 278.301 230.3 279.767 230.3C281.567 230.3 282.967 230 283.967 229.4C285.034 228.8 285.567 227.9 285.567 226.7C285.567 224.967 284.301 224.1 281.767 224.1C281.034 224.1 280.334 224.133 279.667 224.2C279.001 224.333 278.167 224.533 277.167 224.8L275.467 223.2L276.867 214H282.367L281.067 221.6L278.467 220.8C279.201 220.6 279.967 220.433 280.767 220.3C281.634 220.167 282.401 220.1 283.067 220.1C285.534 220.1 287.567 220.7 289.167 221.9C290.767 223.1 291.567 224.8 291.567 227C291.567 229.467 290.501 231.467 288.367 233C286.301 234.533 283.601 235.3 280.267 235.3ZM312.674 216V142.4H321.774V216H312.674ZM359.891 216.9C351.891 216.9 345.557 214.6 340.891 210C336.291 205.4 333.991 199.067 333.991 191C333.991 185.667 334.991 181.067 336.991 177.2C339.057 173.267 341.891 170.233 345.491 168.1C349.091 165.9 353.291 164.8 358.091 164.8C362.691 164.8 366.591 165.8 369.791 167.8C372.991 169.733 375.424 172.5 377.091 176.1C378.757 179.7 379.591 183.967 379.591 188.9V191.9H341.091V186.5H373.391L371.691 187.8C371.691 182.6 370.524 178.567 368.191 175.7C365.924 172.833 362.557 171.4 358.091 171.4C353.224 171.4 349.457 173.1 346.791 176.5C344.124 179.833 342.791 184.4 342.791 190.2V191.1C342.791 197.233 344.291 201.867 347.291 205C350.357 208.133 354.591 209.7 359.991 209.7C362.991 209.7 365.791 209.267 368.391 208.4C370.991 207.533 373.491 206.1 375.891 204.1L378.891 210.4C376.624 212.467 373.791 214.067 370.391 215.2C367.057 216.333 363.557 216.9 359.891 216.9ZM391.383 216V178C391.383 176 391.316 173.967 391.183 171.9C391.116 169.767 390.949 167.7 390.683 165.7H399.483L400.583 178.3L399.083 178.4C399.749 175.333 400.883 172.8 402.483 170.8C404.149 168.733 406.116 167.233 408.383 166.3C410.716 165.3 413.116 164.8 415.583 164.8C416.649 164.8 417.549 164.833 418.283 164.9C419.016 164.967 419.749 165.133 420.483 165.4L420.283 173.5C419.283 173.1 418.349 172.867 417.483 172.8C416.683 172.667 415.683 172.6 414.483 172.6C411.549 172.6 409.016 173.267 406.883 174.6C404.816 175.933 403.216 177.7 402.083 179.9C401.016 182.1 400.483 184.467 400.483 187V216H391.383ZM428.495 216V165.7H437.595V216H428.495ZM427.695 154.7V144.9H438.495V154.7H427.695ZM452.811 216V177.6C452.811 175.667 452.744 173.7 452.611 171.7C452.478 169.7 452.278 167.7 452.011 165.7H460.811L461.811 176.5H460.611C461.944 172.767 464.078 169.9 467.011 167.9C469.944 165.833 473.444 164.8 477.511 164.8C481.644 164.8 485.044 165.8 487.711 167.8C490.378 169.733 492.178 172.8 493.111 177H491.611C492.878 173.267 495.111 170.3 498.311 168.1C501.511 165.9 505.244 164.8 509.511 164.8C515.044 164.8 519.211 166.433 522.011 169.7C524.811 172.9 526.211 177.9 526.211 184.7V216H517.111V185.2C517.111 180.6 516.311 177.3 514.711 175.3C513.111 173.233 510.578 172.2 507.111 172.2C503.044 172.2 499.844 173.6 497.511 176.4C495.178 179.133 494.011 182.867 494.011 187.6V216H484.911V185.2C484.911 180.6 484.111 177.3 482.511 175.3C480.978 173.233 478.444 172.2 474.911 172.2C470.844 172.2 467.644 173.6 465.311 176.4C463.044 179.133 461.911 182.867 461.911 187.6V216H452.811ZM541.092 216V165.7H550.192V216H541.092ZM540.292 154.7V144.9H551.092V154.7H540.292ZM562.709 216V209.9L596.109 170.4V172.7H562.709V165.7H604.509V171.8L570.909 211.5L570.809 209H605.609V216H562.709ZM639.285 216.9C631.285 216.9 624.952 214.6 620.285 210C615.685 205.4 613.385 199.067 613.385 191C613.385 185.667 614.385 181.067 616.385 177.2C618.452 173.267 621.285 170.233 624.885 168.1C628.485 165.9 632.685 164.8 637.485 164.8C642.085 164.8 645.985 165.8 649.185 167.8C652.385 169.733 654.818 172.5 656.485 176.1C658.152 179.7 658.985 183.967 658.985 188.9V191.9H620.485V186.5H652.785L651.085 187.8C651.085 182.6 649.918 178.567 647.585 175.7C645.318 172.833 641.952 171.4 637.485 171.4C632.618 171.4 628.852 173.1 626.185 176.5C623.518 179.833 622.185 184.4 622.185 190.2V191.1C622.185 197.233 623.685 201.867 626.685 205C629.752 208.133 633.985 209.7 639.385 209.7C642.385 209.7 645.185 209.267 647.785 208.4C650.385 207.533 652.885 206.1 655.285 204.1L658.285 210.4C656.018 212.467 653.185 214.067 649.785 215.2C646.452 216.333 642.952 216.9 639.285 216.9ZM262.7 342.9C258.233 342.9 254.367 341.8 251.1 339.6C247.833 337.333 245.667 334.233 244.6 330.3H245.7V342H236.6V268.4H245.7V303.2H244.6C245.733 299.333 247.9 296.3 251.1 294.1C254.367 291.9 258.233 290.8 262.7 290.8C267.167 290.8 271.067 291.867 274.4 294C277.733 296.067 280.3 299.033 282.1 302.9C283.967 306.767 284.9 311.433 284.9 316.9C284.9 322.3 283.967 326.967 282.1 330.9C280.3 334.767 277.7 337.733 274.3 339.8C270.967 341.867 267.1 342.9 262.7 342.9ZM260.6 335.7C265.133 335.7 268.767 334.133 271.5 331C274.3 327.8 275.7 323.1 275.7 316.9C275.7 310.7 274.3 306.033 271.5 302.9C268.767 299.7 265.133 298.1 260.6 298.1C256 298.1 252.333 299.667 249.6 302.8C246.933 305.933 245.6 310.6 245.6 316.8C245.6 323 246.933 327.7 249.6 330.9C252.333 334.1 256 335.7 260.6 335.7ZM316.347 342.9C311.947 342.9 308.08 341.867 304.747 339.8C301.414 337.733 298.814 334.733 296.947 330.8C295.08 326.867 294.147 322.2 294.147 316.8C294.147 311.4 295.08 306.767 296.947 302.9C298.814 298.967 301.414 295.967 304.747 293.9C308.08 291.833 311.947 290.8 316.347 290.8C320.814 290.8 324.68 291.933 327.947 294.2C331.28 296.4 333.48 299.433 334.547 303.3H333.347L334.447 291.7H343.247C343.047 293.7 342.847 295.7 342.647 297.7C342.514 299.7 342.447 301.667 342.447 303.6V342H333.347V330.5H334.447C333.38 334.3 331.18 337.333 327.847 339.6C324.58 341.8 320.747 342.9 316.347 342.9ZM318.447 335.7C322.98 335.7 326.614 334.1 329.347 330.9C332.08 327.7 333.447 323 333.447 316.8C333.447 310.6 332.08 305.933 329.347 302.8C326.614 299.667 322.98 298.1 318.447 298.1C313.914 298.1 310.247 299.667 307.447 302.8C304.714 305.933 303.347 310.6 303.347 316.8C303.347 323 304.714 327.7 307.447 330.9C310.18 334.1 313.847 335.7 318.447 335.7ZM357.694 342V268.4H366.794V313.9H366.994L389.694 291.7H400.994L373.994 318.1L374.094 313.8L403.394 342H391.794L366.994 318.6H366.794V342H357.694ZM410.038 342V291.7H419.138V342H410.038ZM434.354 342V303.6C434.354 301.667 434.287 299.7 434.154 297.7C434.021 295.7 433.821 293.7 433.554 291.7H442.354L443.354 302.5H442.154C443.687 298.7 446.054 295.8 449.254 293.8C452.454 291.8 456.187 290.8 460.454 290.8C466.387 290.8 470.854 292.433 473.854 295.7C476.854 298.9 478.354 303.9 478.354 310.7V342H469.254V311.2C469.254 306.6 468.354 303.3 466.554 301.3C464.754 299.233 461.954 298.2 458.154 298.2C453.621 298.2 450.021 299.567 447.354 302.3C444.754 305.033 443.454 308.733 443.454 313.4V342H434.354Z" fill="white"/>
<path d="M1087 237.5L988.75 294.225L988.75 180.775L1087 237.5Z" fill="white"/>
<circle cx="1022" cy="237" r="133" stroke="white" stroke-width="10"/>
<defs>
<linearGradient id="paint0_linear_57_391" x1="315.859" y1="72.3052" x2="453.195" y2="476.637" gradientUnits="userSpaceOnUse">
<stop stop-color="#F71D0A"/>
<stop offset="1" stop-color="#F00B5D"/>
</linearGradient>
</defs>
</svg>
